<svg
   xmlns="http://www.w3.org/2000/svg"
   xmlns:xlink="http://www.w3.org/1999/xlink"
   viewBox="0 0 1365.333 1024"
   width="1365.333pt"
    height="1024pt"
   fill="#D6FF42"
  
   style="
      background-color: black;
     
      margin-left: auto;
      margin-right: auto;
      border-radius: 25% 10%;
      border-width: 4px;
      border-style: solid;
      border-color: #D6FF42;
     
      fill: ' #D6FF42';
      height: 200px;
      width: 200px;
   "
>
   <defs>
      <clipPath id="_clipPath_e7qLN8q95Pzejz9WSAMf1sDyo1y5kCoM">
         <rect width="1365.333" height="1024"></rect>
      </clipPath>
   </defs>
   <g clip-path="url(#_clipPath_e7qLN8q95Pzejz9WSAMf1sDyo1y5kCoM)">
      <g>
         <clipPath id="_clipPath_Eobv1T5QIsY449vxXXeoSpKDT59wepxn">
            <path
               d=" M 0 0 L 1365.333 0 L 1365.333 1024 L 0 1024 L 0 0 Z "
               fill="rgb(255,255,255)"
            ></path>
         </clipPath>
         <g clip-path="url(#_clipPath_Eobv1T5QIsY449vxXXeoSpKDT59wepxn)">
            <g>
               <g>
                  <path
                     d=" M 580 406.667 L 467.161 406.667 C 441.865 406.667 418.74 420.935 407.427 443.56 L 279.707 698.989 C 269.356 719.692 270.461 744.457 282.631 764.147 C 294.799 783.836 316.295 796 339.44 796 L 580 796 L 580 816 L 339.44 816 C 314.559 816 294.939 807.903 277.693 790.657 C 260.448 773.412 252.416 753.757 252.416 728.877 C 252.416 715.348 255.443 702.701 261.696 690.196 L 389.391 434.397 C 406.391 400.399 428.921 386.667 467.161 386.667 L 580 386.667 L 580 406.667 Z  M 329.657 404.581 L 201.937 660.465 C 191.067 682.205 185.632 704.981 185.632 728.895 C 185.632 771.652 200.577 807.955 230.469 837.847 C 260.361 867.739 296.683 882.667 339.44 882.667 L 646.667 882.667 L 646.667 729.333 L 339.44 729.333 L 467.161 473.333 L 646.667 473.333 L 646.667 320 L 467.161 320 C 403.751 320 357.919 348.059 329.657 404.581 Z "
                     fill-rule="evenodd"
                     fill="null"
                  ></path>
               </g>
               <g>
                  <path
                     d=" M 1143.512 790.51 C 1126.059 807.855 1106.478 815.999 1081.891 815.999 L 826.45 815.999 C 801.306 815.999 782.596 808.099 765.13 790.525 C 747.788 773.081 740 753.435 740 728.843 L 740 181.333 L 760 181.333 L 760 728.843 C 760 765.727 789.566 795.999 826.45 795.999 L 1081.891 795.999 C 1105.036 795.999 1126.532 783.83 1138.7 764.141 C 1150.868 744.451 1151.975 719.773 1141.624 699.07 L 1013.903 443.606 C 1002.591 420.981 979.466 406.666 954.17 406.666 L 918.667 406.666 L 918.667 386.666 L 954.17 386.666 C 992.408 386.666 1014.94 400.39 1031.915 434.339 L 1159.66 690.302 C 1165.887 702.757 1168.915 715.385 1168.915 728.913 C 1168.915 754.051 1161.079 773.049 1143.512 790.51 Z  M 1219.394 660.363 L 1091.674 404.582 C 1063.412 348.058 1017.571 319.999 954.17 319.999 L 852 319.999 L 852 473.333 L 954.17 473.333 L 1081.891 729.333 L 826.667 729.333 L 826.667 114.666 L 672 114.666 L 672 728.843 C 672 771.237 687.267 807.479 717.159 837.549 C 747.051 867.629 783.691 882.666 826.45 882.666 L 1081.891 882.666 C 1124.283 882.666 1160.51 867.714 1190.588 837.822 C 1220.659 807.929 1235.699 771.605 1235.699 728.847 C 1235.699 704.934 1230.263 682.103 1219.394 660.363"
                     fill="null"
                  ></path>
               </g>
            </g>
         </g>
      </g>
   </g>
</svg>
